<svg xmlns="http://www.w3.org/2000/svg" viewBox="0 0 38 20"><path fill="#fff" d="M0 0h38v20H0z"/><path stroke="#b22234" stroke-width="2" d="M0 1h38M0 5h38M0 9h38M0 13h38M0 17h38"/><path fill="#3c3b6e" d="M0 0h16v11H0z"/><g fill="#fff"><circle cx="2" cy="2" r=".45"/><circle cx="5" cy="2" r=".45"/><circle cx="8" cy="2" r=".45"/><circle cx="11" cy="2" r=".45"/><circle cx="14" cy="2" r=".45"/><circle cx="3.5" cy="4.5" r=".45"/><circle cx="6.5" cy="4.5" r=".45"/><circle cx="9.5" cy="4.5" r=".45"/><circle cx="12.5" cy="4.5" r=".45"/><circle cx="2" cy="7" r=".45"/><circle cx="5" cy="7" r=".45"/><circle cx="8" cy="7" r=".45"/><circle cx="11" cy="7" r=".45"/><circle cx="14" cy="7" r=".45"/><circle cx="3.5" cy="9.5" r=".45"/><circle cx="6.5" cy="9.5" r=".45"/><circle cx="9.5" cy="9.5" r=".45"/><circle cx="12.5" cy="9.5" r=".45"/></g></svg>
